<svg width="60" height="60" viewBox="0 0 60 60" fill="none" xmlns="http://www.w3.org/2000/svg">
<path fill-rule="evenodd" clip-rule="evenodd" d="M43.125 38.1821C43.125 43.4645 37.8501 48.75 30 48.75C22.1499 48.75 16.875 43.4645 16.875 38.1821C16.875 32.703 20.4386 25.8795 24.6272 19.9393C26.5204 17.2545 28.4204 14.9158 29.9062 13.1882C31.4203 15.0508 33.3849 17.5863 35.3424 20.4479C37.3834 23.4314 39.3685 26.6997 40.8313 29.8805C42.3208 33.1196 43.125 35.9636 43.125 38.1821ZM13.125 38.1821C13.125 27.9881 22.7461 15.6956 27.4589 10.2856C28.9877 8.5307 30 7.5 30 7.5C30 7.5 30.9698 8.57207 32.4445 10.3679C37.1211 16.0631 46.875 29.0376 46.875 38.1821C46.875 46.0897 39.3198 52.5 30 52.5C20.6802 52.5 13.125 46.0897 13.125 38.1821ZM21.5594 31.875H25.5936C24.8345 33.6074 24.375 35.2503 24.375 36.6479C24.375 38.794 26.4743 41.25 30 41.25V45C24.8223 45 20.625 41.2606 20.625 36.6479C20.625 35.1087 20.9831 33.4874 21.5594 31.875Z" fill="#445786"/>
</svg>
