<svg width="60" height="60" viewBox="0 0 60 60" fill="none" xmlns="http://www.w3.org/2000/svg">
<path d="M26 28.6828L26.6665 30.5685L28 30.0972V28.6828H26ZM34 28.6828H32V30.0972L33.3335 30.5685L34 28.6828ZM28 12C28 10.8954 28.8954 10 30 10V6C26.6863 6 24 8.68629 24 12H28ZM28 28.6828V12H24V28.6828H28ZM20 40C20 35.6491 22.7798 31.9422 26.6665 30.5685L25.3335 26.7971C19.8986 28.7181 16 33.9012 16 40H20ZM30 50C24.4772 50 20 45.5228 20 40H16C16 47.732 22.268 54 30 54V50ZM40 40C40 45.5228 35.5228 50 30 50V54C37.732 54 44 47.732 44 40H40ZM33.3335 30.5685C37.2202 31.9422 40 35.6491 40 40H44C44 33.9012 40.1014 28.7181 34.6665 26.7971L33.3335 30.5685ZM32 12V28.6828H36V12H32ZM30 10C31.1046 10 32 10.8954 32 12H36C36 8.68629 33.3137 6 30 6V10Z" fill="#445786"/>
<circle cx="30" cy="40" r="4" fill="#445786"/>
<rect x="18" y="20" width="9" height="4" fill="#445786"/>
<rect x="18" y="13" width="9" height="4" fill="#445786"/>
</svg>
